HIERARCHY
ROOT Hips
{
	OFFSET 0.00000 0.00000 0.00000
	CHANNELS 6 Xposition Yposition Zposition Zrotation Yrotation Xrotation 
	JOINT LHipJoint
	{
		OFFSET 0 0 0
		CHANNELS 3 Zrotation Yrotation Xrotation
		JOINT LeftUpLeg
		{
			OFFSET 1.37590 -1.78394 0.89329
			CHANNELS 3 Zrotation Yrotation Xrotation
			JOINT LeftLeg
			{
				OFFSET 2.47928 -6.81178 0.00000
				CHANNELS 3 Zrotation Yrotation Xrotation
				JOINT LeftFoot
				{
					OFFSET 2.63345 -7.23535 0.00000
					CHANNELS 3 Zrotation Yrotation Xrotation
					JOINT LeftToeBase
					{
						OFFSET 0.23938 -0.65768 2.27012
						CHANNELS 3 Zrotation Yrotation Xrotation
						End Site
						{
							OFFSET 0.00000 -0.00000 1.18363
						}
					}
				}
			}
		}
	}
	JOINT RHipJoint
	{
		OFFSET 0 0 0
		CHANNELS 3 Zrotation Yrotation Xrotation
		JOINT RightUpLeg
		{
			OFFSET -1.33617 -1.78394 0.89329
			CHANNELS 3 Zrotation Yrotation Xrotation
			JOINT RightLeg
			{
				OFFSET -2.56922 -7.05888 0.00000
				CHANNELS 3 Zrotation Yrotation Xrotation
				JOINT RightFoot
				{
					OFFSET -2.56568 -7.04915 0.00000
					CHANNELS 3 Zrotation Yrotation Xrotation
					JOINT RightToeBase
					{
						OFFSET -0.27533 -0.75646 2.18105
						CHANNELS 3 Zrotation Yrotation Xrotation
						End Site
						{
							OFFSET -0.00000 -0.00000 1.15233
						}
					}
				}
			}
		}
	}
	JOINT LowerBack
	{
		OFFSET 0 0 0
		CHANNELS 3 Zrotation Yrotation Xrotation
		JOINT Spine
		{
			OFFSET 0.06190 2.15152 -0.00935
			CHANNELS 3 Zrotation Yrotation Xrotation
			JOINT Spine1
			{
				OFFSET 0.06334 2.15332 0.00872
				CHANNELS 3 Zrotation Yrotation Xrotation
				JOINT Neck
				{
					OFFSET 0 0 0
					CHANNELS 3 Zrotation Yrotation Xrotation
					JOINT Neck1
					{
						OFFSET -0.04202 1.66908 0.23524
						CHANNELS 3 Zrotation Yrotation Xrotation
						JOINT Head
						{
							OFFSET 0.07510 1.69357 -0.24440
							CHANNELS 3 Zrotation Yrotation Xrotation
							End Site
							{
								OFFSET 0.02556 1.71719 -0.11000
							}
						}
					}
				}
				JOINT LeftShoulder
				{
					OFFSET 0 0 0
					CHANNELS 3 Zrotation Yrotation Xrotation
					JOINT LeftArm
					{
						OFFSET 3.67168 1.26306 -0.41342
						CHANNELS 3 Zrotation Yrotation Xrotation
						JOINT LeftForeArm
						{
							OFFSET 4.68510 -0.00000 -0.00000
							CHANNELS 3 Zrotation Yrotation Xrotation
							JOINT LeftHand
							{
								OFFSET 3.39626 -0.00000 -0.00000
								CHANNELS 3 Zrotation Yrotation Xrotation
								JOINT LeftFingerBase
								{
									OFFSET 0 0 0
									CHANNELS 3 Zrotation Yrotation Xrotation
									JOINT LeftHandIndex1
									{
										OFFSET 0.48608 -0.00000 -0.00000
										CHANNELS 3 Zrotation Yrotation Xrotation
										End Site
										{
											OFFSET 0.39189 -0.00000 -0.00000
										}
									}
								}
								JOINT LThumb
								{
									OFFSET 0 0 0
									CHANNELS 3 Zrotation Yrotation Xrotation
									End Site
									{
										OFFSET 0.39787 -0.00000 0.39787
									}
								}
							}
						}
					}
				}
				JOINT RightShoulder
				{
					OFFSET 0 0 0
					CHANNELS 3 Zrotation Yrotation Xrotation
					JOINT RightArm
					{
						OFFSET -3.04136 1.42992 -0.76390
						CHANNELS 3 Zrotation Yrotation Xrotation
						JOINT RightForeArm
						{
							OFFSET -5.55576 -0.00000 -0.00000
							CHANNELS 3 Zrotation Yrotation Xrotation
							JOINT RightHand
							{
								OFFSET -3.32774 -0.00000 -0.00000
								CHANNELS 3 Zrotation Yrotation Xrotation
								JOINT RightFingerBase
								{
									OFFSET 0 0 0
									CHANNELS 3 Zrotation Yrotation Xrotation
									JOINT RightHandIndex1
									{
										OFFSET -0.50763 -0.00000 -0.00000
										CHANNELS 3 Zrotation Yrotation Xrotation
										End Site
										{
											OFFSET -0.40926 -0.00000 -0.00000
										}
									}
								}
								JOINT RThumb
								{
									OFFSET 0 0 0
									CHANNELS 3 Zrotation Yrotation Xrotation
									End Site
									{
										OFFSET -0.41551 -0.00000 0.41551
									}
								}
							}
						}
					}
				}
			}
		}
	}
}
MOTION
Frames: 15
Frame Time: .0083333
14.2471 17.4618 5.7442 -134.5060 -77.0197 139.7850 0.0000 0.0000 0.0000 -6.7995 -3.0322 -37.8559 4.7112 13.0510 39.5596 179.9714 3.5781 0.7782 0.0095 -0.6296 -1.7302 0.0000 0.0000 0.0000 31.4657 0.6090 8.5331 -2.3017 -9.4682 27.2711 -0.3898 0.6130 -11.5947 -0.5342 4.6832 -13.0073 7.7852 3.8835 -5.8021 3.0213 4.5997 -3.5401 -0.9443 2.1374 -0.0620 -6.7541 -5.1762 -18.3766 7.6906 -6.9911 17.2649 2.7999 -2.9615 8.9560 0.0000 0.0000 0.0000 -80.9557 23.1123 37.4851 23.5422 -34.6764 -7.4445 -0.0000 0.0000 -1.2343 16.1801 6.9112 1.9996 -7.1250 0.0000 -0.0000 -8.9750 37.0402 1.7751 0.0000 0.0000 0.0000 79.8370 22.2848 49.5978 -54.2321 54.5660 -29.5893 0.0000 -0.0000 -9.5132 -12.2114 -9.7866 2.1067 7.1250 -0.0000 -0.0000 12.8644 -39.6651 1.7246
14.0577 17.4382 5.7671 -135.2330 -77.4486 140.5630 0.0000 0.0000 0.0000 -7.8808 -2.9104 -35.4998 4.2046 12.4278 37.2627 179.9753 2.8973 -1.8876 0.0000 0.0155 0.0425 0.0000 0.0000 0.0000 30.2939 0.0313 7.2263 -2.6997 -10.1922 29.6014 -0.2847 1.0813 -9.7556 -0.5836 4.8914 -13.5990 7.4544 3.7030 -5.9866 2.9104 4.3657 -3.6346 -0.8866 2.0230 -0.0887 -6.5754 -5.0680 -18.4322 7.5651 -6.8799 17.4913 2.7435 -2.9084 9.0231 0.0000 -0.0000 0.0000 -82.2914 21.6800 36.9626 23.3502 -34.4695 -7.3355 -0.0000 0.0000 -1.3299 16.5757 6.9795 2.0714 -7.1250 0.0000 -0.0000 -8.6536 37.1344 1.6901 0.0000 -0.0000 0.0000 79.9027 19.8907 49.6938 -53.4807 54.3064 -28.9781 0.0000 -0.0000 -9.1631 -12.1695 -9.9392 2.1317 7.1250 -0.0000 -0.0000 12.9340 -39.8135 1.6861
13.8782 17.4212 5.7904 -135.9170 -78.1057 141.2170 0.0000 0.0000 0.0000 -9.1060 -3.0613 -33.4199 3.7991 11.8881 35.3373 -179.9881 2.1975 -3.9136 0.0126 0.7246 1.9914 0.0000 0.0000 0.0000 28.9613 -0.6119 5.6238 -3.2001 -11.0121 32.3208 -0.1676 1.2350 -7.3975 -0.5924 4.9276 -13.7023 6.9452 3.4415 -6.0249 2.7780 4.0519 -3.6932 -0.7665 1.8728 -0.1725 -6.3930 -4.9736 -18.5841 7.4371 -6.7823 17.7259 2.6822 -2.8589 9.1118 -0.0000 0.0000 0.0000 -83.6064 20.0649 36.6020 23.2145 -34.3225 -7.2589 -0.0000 0.0000 -1.4351 16.9135 7.0009 2.1226 -7.1250 0.0000 -0.0000 -8.3732 37.1774 1.6256 -0.0000 0.0000 0.0000 79.9260 17.5118 49.6868 -52.6049 53.9936 -28.2682 0.0000 -0.0000 -8.7959 -12.1170 -10.0919 2.1544 7.1250 -0.0000 -0.0000 13.0131 -39.9610 1.6486
13.7104 17.4119 5.8131 -136.5500 -79.0072 141.7280 0.0000 0.0000 0.0000 -10.4601 -3.5209 -31.6149 3.4950 11.4563 33.8347 -179.9468 1.5779 -5.2389 0.0418 1.3200 3.6297 0.0000 0.0000 0.0000 27.4921 -1.2967 3.7627 -3.8120 -11.9060 35.4001 -0.0631 0.9632 -4.5037 -0.5294 4.6626 -12.9488 6.2434 3.1008 -5.8951 2.6217 3.6605 -3.7091 -0.5766 1.6887 -0.3154 -6.2287 -4.9042 -18.8113 7.3311 -6.7127 17.9388 2.6264 -2.8192 9.2108 -0.0000 -0.0000 0.0000 -84.8774 18.2465 36.4536 23.1383 -34.2397 -7.2160 -0.0000 0.0000 -1.4834 17.1644 7.0625 2.1748 -7.1250 0.0000 -0.0000 -8.1713 37.2565 1.5697 -0.0000 -0.0000 0.0000 79.9181 15.1411 49.5357 -51.6092 53.6243 -27.4646 0.0000 -0.0000 -8.3919 -12.0839 -10.2419 2.1799 7.1250 -0.0000 -0.0000 13.0754 -40.1072 1.6087
13.5541 17.4104 5.8342 -137.0790 -80.1365 142.0320 0.0000 0.0000 0.0000 -11.9060 -4.2665 -30.0362 3.2849 11.1425 32.7621 -179.9159 1.1613 -6.0332 0.0760 1.7782 4.8932 0.0000 0.0000 0.0000 25.9305 -1.9968 1.6950 -4.5426 -12.8495 38.8075 -0.0041 0.2157 -1.1544 -0.3861 3.9901 -11.0489 5.3733 2.6974 -5.6063 2.4423 3.2045 -3.6470 -0.3224 1.4788 -0.4695 -6.1102 -4.8790 -19.1569 7.2839 -6.6932 18.1022 2.5894 -2.7968 9.3221 -0.0000 -0.0000 0.0000 -86.0764 16.1810 36.5794 23.1316 -34.2324 -7.2122 -0.0000 0.0000 -1.4186 17.3667 7.1122 2.2175 -7.1250 0.0000 -0.0000 -8.0083 37.3206 1.5253 -0.0000 -0.0000 0.0000 79.8839 12.8084 49.1824 -50.5237 53.2045 -26.5929 0.0000 -0.0000 -7.9573 -12.0895 -10.3959 2.2134 7.1250 -0.0000 -0.0000 13.1059 -40.2606 1.5621
13.4087 17.4156 5.8529 -137.3940 -81.4178 142.0280 0.0000 0.0000 0.0000 -13.3692 -5.1788 -28.6411 3.1552 10.9422 32.0851 -179.8946 0.9257 -6.5459 0.1032 2.0711 5.7023 0.0000 0.0000 0.0000 24.3625 -2.6526 -0.5315 -5.4001 -13.8207 42.5239 -0.0179 -0.9028 2.3758 -0.2126 2.9685 -8.1912 4.4035 2.2551 -5.1620 2.2553 2.7052 -3.5499 -0.0215 1.2498 -0.6701 -6.0783 -4.8911 -19.4117 7.3300 -6.7174 18.1391 2.5933 -2.7937 9.3835 0.0000 -0.0000 0.0000 -87.1995 14.0037 36.9758 23.2314 -34.3408 -7.2684 -0.0000 0.0000 -1.2072 17.4995 7.1283 2.2405 -7.1250 0.0000 -0.0000 -7.8988 37.3455 1.4992 0.0000 -0.0000 0.0000 79.8581 10.4181 48.6262 -49.3455 52.7281 -25.6524 0.0000 -0.0000 -7.4660 -12.1416 -10.5245 2.2504 7.1250 -0.0000 -0.0000 13.0910 -40.3927 1.5168
13.2719 17.4253 5.8686 -137.2890 -82.7571 141.5220 0.0000 0.0000 0.0000 -14.7733 -6.1054 -27.3831 3.0921 10.8427 31.7513 -179.8798 0.8903 -6.9377 0.1177 2.2123 6.0927 0.0000 0.0000 0.0000 22.8765 -3.2139 -2.8690 -6.3894 -14.7954 46.5252 -0.1042 -2.1106 5.7323 -0.0724 1.7361 -4.7769 3.4124 1.8189 -4.6128 2.0700 2.2083 -3.3795 0.3001 1.0245 -0.8431 -6.1267 -4.9539 -19.6507 7.4736 -6.8007 18.0427 2.6352 -2.8142 9.4070 0.0000 -0.0000 0.0000 -88.2280 11.6689 37.6775 23.4582 -34.5861 -7.3968 -0.0000 0.0000 -0.8960 17.5554 7.1529 2.2559 -7.1250 0.0000 -0.0000 -7.8552 37.3745 1.4852 0.0000 -0.0000 0.0000 79.8472 8.0325 47.8185 -48.0930 52.1968 -24.6592 0.0000 -0.0000 -6.9472 -12.2701 -10.6264 2.2967 7.1250 -0.0000 -0.0000 13.0041 -40.5049 1.4696
13.1414 17.4369 5.8815 -136.4870 -84.0425 140.2480 0.0000 0.0000 0.0000 -16.0397 -6.9040 -26.2008 3.0745 10.8146 31.6572 -179.8666 1.0162 -7.3484 0.1266 2.2932 6.3166 0.0000 0.0000 0.0000 21.5551 -3.6203 -5.2698 -7.5112 -15.7477 50.7823 -0.2336 -3.1796 8.5882 -0.0043 0.4212 -1.1573 2.4946 1.4186 -3.9830 1.9014 1.7456 -3.1430 0.6073 0.8156 -0.9798 -6.2539 -5.0615 -19.8624 7.7097 -6.9348 17.8243 2.7143 -2.8554 9.3939 0.0000 0.0000 0.0000 -89.1738 9.2471 38.6359 23.8460 -35.0009 -7.6180 -0.0000 0.0000 -0.5477 17.6154 7.0826 2.2420 -7.1250 0.0000 -0.0000 -7.7947 37.3054 1.4869 0.0000 0.0000 0.0000 79.8726 5.6515 46.7807 -46.7824 51.6124 -23.6277 0.0000 -0.0000 -6.4239 -12.4940 -10.6993 2.3557 7.1250 -0.0000 -0.0000 12.8284 -40.5967 1.4194
13.0143 17.4481 5.8923 -134.7030 -85.1787 137.9420 0.0000 0.0000 0.0000 -17.1183 -7.4829 -25.0241 3.0690 10.8059 31.6280 -179.8527 1.2252 -7.8060 0.1341 2.3603 6.5025 0.0000 0.0000 0.0000 20.4479 -3.8212 -7.7088 -8.7617 -16.6519 55.2623 -0.3614 -3.9349 10.6887 -0.0149 -0.7871 2.1631 1.7161 1.0784 -3.3090 1.7576 1.3459 -2.8626 0.8717 0.6352 -1.0842 -6.4318 -5.1994 -20.0154 8.0045 -7.1043 17.5151 2.8170 -2.9127 9.3465 0.0000 -0.0000 0.0000 -90.0415 6.8268 39.8051 24.4381 -35.6242 -7.9603 -0.0000 0.0000 -0.2652 17.7201 6.9470 2.2132 -7.1250 0.0000 -0.0000 -7.6876 37.1713 1.4916 0.0000 -0.0000 0.0000 79.9456 3.2595 45.5489 -45.4426 50.9835 -22.5821 0.0000 -0.0000 -5.9403 -12.7218 -10.7661 2.4148 7.1250 -0.0000 -0.0000 12.6476 -40.6829 1.3712
12.8883 17.4571 5.9017 -131.8440 -86.1003 134.5320 0.0000 0.0000 0.0000 -18.0042 -7.7585 -23.7992 3.0434 10.7650 31.4915 -179.8382 1.4655 -8.2831 0.1382 2.3956 6.6003 0.0000 0.0000 0.0000 19.5656 -3.7818 -10.1781 -10.1296 -17.4821 59.9206 -0.4501 -4.3059 11.9345 -0.0745 -1.7603 4.8438 1.1017 0.8075 -2.6391 1.6438 1.0221 -2.5542 1.0836 0.4884 -1.1493 -6.6304 -5.3443 -20.0986 8.3221 -7.2809 17.1516 2.9302 -2.9751 9.2713 -0.0000 -0.0000 0.0000 -90.8450 4.4633 41.1058 25.2479 -36.4563 -8.4367 -0.0000 0.0000 -0.1415 17.8683 6.6867 2.1498 -7.1250 0.0000 -0.0000 -7.5273 36.9098 1.5086 -0.0000 -0.0000 0.0000 80.0656 0.8673 44.1827 -44.1165 50.3282 -21.5565 0.0000 -0.0000 -5.5244 -12.9519 -10.7971 2.4670 7.1250 -0.0000 -0.0000 12.4563 -40.7339 1.3338
12.7627 17.4638 5.9105 -128.3020 -86.8049 130.4390 0.0000 0.0000 0.0000 -18.7367 -7.7477 -22.5310 2.9925 10.6829 31.2179 -179.8223 1.6866 -8.7669 0.1407 2.4171 6.6598 0.0000 0.0000 0.0000 18.8584 -3.5017 -12.6935 -11.5935 -18.2135 64.6943 -0.4851 -4.3176 12.3929 -0.1465 -2.4670 6.7981 0.6368 0.5976 -1.9902 1.5488 0.7668 -2.2451 1.2369 0.3717 -1.1971 -6.8126 -5.4754 -20.1320 8.6183 -7.4412 16.7956 3.0361 -3.0330 9.1882 0.0000 0.0000 0.0000 -91.5841 2.2316 42.4579 26.3233 -37.5262 -9.0839 -0.0000 0.0000 -0.2295 18.0713 6.4184 2.0890 -7.1250 0.0000 -0.0000 -7.3216 36.6426 1.5149 0.0000 0.0000 0.0000 80.2229 -1.5047 42.7632 -42.8255 49.6576 -20.5676 0.0000 -0.0000 -5.2062 -13.1542 -10.8215 2.5124 7.1250 -0.0000 -0.0000 12.2872 -40.7758 1.3022
12.6375 17.4693 5.9189 -124.8800 -87.3538 126.4980 0.0000 0.0000 0.0000 -19.3874 -7.5690 -21.2374 2.9173 10.5600 30.8100 -179.8051 1.8280 -9.2184 0.1385 2.3987 6.6090 0.0000 0.0000 0.0000 18.2419 -3.0074 -15.2904 -13.1243 -18.8266 69.5111 -0.4744 -4.0011 12.2599 -0.2047 -2.9128 8.0362 0.2533 0.4281 -1.3839 1.4607 0.5565 -1.9600 1.3559 0.2747 -1.2436 -6.9537 -5.5751 -20.1388 8.8566 -7.5638 16.5005 3.1215 -3.0774 9.1148 -0.0000 -0.0000 0.0000 -92.2630 0.1503 43.7902 27.6603 -38.8016 -9.9101 -0.0000 0.0000 -0.5236 18.2981 6.1372 2.0247 -7.1250 0.0000 -0.0000 -7.0960 36.3624 1.5166 -0.0000 -0.0000 0.0000 80.3902 -3.8415 41.3631 -41.6029 48.9914 -19.6404 0.0000 -0.0000 -4.9845 -13.3094 -10.8272 2.5444 7.1250 -0.0000 -0.0000 12.1545 -40.7953 1.2817
12.5126 17.4759 5.9269 -122.4230 -87.8248 123.5840 0.0000 0.0000 0.0000 -20.0254 -7.3245 -19.9375 2.8202 10.3981 30.2757 -179.7870 1.8834 -9.6198 0.1329 2.3496 6.4727 0.0000 0.0000 0.0000 17.6298 -2.3426 -17.9982 -14.6871 -19.3093 74.2923 -0.4346 -3.2536 11.7626 -0.2284 -3.0762 8.4910 -0.1152 0.2744 -0.8395 1.3699 0.3606 -1.7151 1.4668 0.1833 -1.2951 -7.0413 -5.6320 -20.1441 9.0126 -7.6332 16.3049 3.1780 -3.1012 9.0654 -0.0000 -0.0000 0.0000 -92.8804 -1.7699 45.0443 29.2532 -40.2446 -10.9239 -0.0000 0.0000 -0.9697 18.5135 5.8937 1.9693 -7.1250 0.0000 -0.0000 -6.8863 36.1198 1.5122 -0.0000 -0.0000 0.0000 80.5359 -6.1233 40.0478 -40.4753 48.3490 -18.7936 0.0000 -0.0000 -4.8416 -13.3812 -10.8292 2.5591 7.1250 -0.0000 -0.0000 12.0928 -40.8036 1.2724
12.3889 17.4855 5.9339 -121.2660 -88.2851 122.0570 0.0000 0.0000 0.0000 -20.6955 -7.1204 -18.6687 2.7102 10.2104 29.6608 -179.7681 1.8494 -9.9687 0.1249 2.2781 6.2747 0.0000 0.0000 0.0000 16.9636 -1.5573 -20.8497 -16.2450 -19.6585 78.9608 -0.3861 -1.7683 11.2555 -0.2234 -3.0425 8.3971 -0.5139 0.1117 -0.3635 1.2705 0.1470 -1.5229 1.5885 0.0825 -1.3603 -7.0688 -5.6405 -20.1776 9.0760 -7.6415 16.2290 3.2022 -3.1002 9.0501 0.0000 0.0000 0.0000 -93.4274 -3.5499 46.1782 31.0853 -41.8057 -12.1267 -0.0000 0.0000 -1.4954 18.6504 5.7754 1.9452 -7.1250 0.0000 -0.0000 -6.7580 36.0034 1.5030 0.0000 0.0000 0.0000 80.6360 -8.3289 38.8647 -39.4457 47.7381 -18.0280 0.0000 -0.0000 -4.7295 -13.4204 -10.7964 2.5592 7.1250 -0.0000 -0.0000 12.0515 -40.7742 1.2768
12.2662 17.4997 5.9400 -121.2430 -88.7753 121.7550 0.0000 0.0000 0.0000 -21.4173 -7.0155 -17.4424 2.5929 10.0049 28.9926 -179.7495 1.7532 -10.2634 0.1161 2.1969 6.0500 0.0000 0.0000 0.0000 16.2107 -0.7136 -23.8495 -17.9676 -19.9007 84.0481 1.7624 24.9170 20.7483 -0.2090 -2.9431 8.1204 -0.9647 -0.0760 0.0485 1.1656 -0.1052 -1.3890 1.7367 -0.0372 -1.4458 -7.0468 -5.6023 -20.2517 9.0514 -7.5886 16.2735 3.1974 -3.0738 9.0718 0.0000 0.0000 0.0000 -93.8999 -5.2176 47.1864 33.1147 -43.4180 -13.5009 -0.0000 0.0000 -1.9989 18.7183 5.7462 1.9430 -7.1250 0.0000 -0.0000 -6.6981 35.9764 1.4940 0.0000 0.0000 0.0000 80.6572 -10.4787 37.8413 -38.5638 47.1956 -17.3781 0.0000 -0.0000 -4.6283 -13.4667 -10.7349 2.5539 7.1250 -0.0000 -0.0000 11.9977 -40.7166 1.2883
